#N canvas 430 96 567 468 12;
#X obj 122 177 pd~ -ninsig 1 -noutsig 1;
#X obj 122 222 print FU-abstraction;
#X obj 287 343 outlet~;
#X obj 122 65 inlet~;
#X obj 363 65 inlet;
#N canvas 253 138 660 655 \$0-futil 1;
#X msg 141 311 pd~ stop;
#X msg 55 359 pd~ start FilterUtility.pd;
#X obj 246 178 pdcontrol;
#X msg 247 204 store \$1;
#X msg 321 203 recall \$1;
#X obj 318 308 s \$0-futil;
#X obj 93 444 s \$0-futil;
#X msg 96 411 pd~ start -nogui FilterUtility.pd;
#X obj 57 35 inlet;
#X obj 49 559 outlet;
#X obj 49 509 r \$0-futil;
#X obj 57 59 route start start-nogui stop store recall;
#X msg 244 155 dir 0 \$1;
#X obj 324 146 pdcontrol;
#X msg 322 123 dir 0 \$1;
#X obj 464 128 s \$0-futil;
#X obj 303 91 symbol;
#X obj 235 107 symbol;
#X connect 0 0 6 0;
#X connect 1 0 6 0;
#X connect 2 0 3 0;
#X connect 3 0 5 0;
#X connect 4 0 5 0;
#X connect 7 0 6 0;
#X connect 8 0 11 0;
#X connect 10 0 9 0;
#X connect 11 0 1 0;
#X connect 11 1 7 0;
#X connect 11 2 0 0;
#X connect 11 3 17 0;
#X connect 11 4 16 0;
#X connect 11 5 15 0;
#X connect 12 0 2 0;
#X connect 13 0 4 0;
#X connect 14 0 13 0;
#X connect 16 0 14 0;
#X connect 17 0 12 0;
#X restore 151 137 pd \$0-futil;
#X text 306 383 See FU-abstraction-help.pd;
#X text 74 17 This abstraction wraps the FilterUtility inside a pd~
object;
#X connect 0 0 1 0;
#X connect 0 1 2 0;
#X connect 3 0 0 0;
#X connect 4 0 5 0;
#X connect 5 0 0 0;
