#N canvas 0 22 450 300 12;
#X obj 37 37 inlet;
#X obj 37 61 expr sin($f1)*sinh(LN2/2.0 * $f2 * $f1/sin($f1));
#X obj 37 85 outlet;
#X obj 356 36 inlet;
#X connect 0 0 1 0;
#X connect 1 0 2 0;
#X connect 3 0 1 1;
