#N canvas 454 120 484 341 12;
#X obj 25 19 inlet~;
#X obj 35 43 s~ \$0-noise;
#X obj 25 278 outlet~;
#X obj 140 195 catch~ \$0-filter;
#X obj 43 93 r \$0-bypass;
#X obj 25 249 clip~ -1 1;
#X obj 25 213 *~;
#X obj 122 170 line~;
#X obj 123 147 pack f 20;
#X obj 43 171 line~;
#X obj 43 147 pack f 20;
#X obj 125 122 ==;
#X obj 43 115 t f f;
#X obj 122 220 *~;
#N canvas 414 194 1307 859 glue 0;
#X obj 247 585 line~;
#X obj 93 592 line~;
#X obj 423 586 line~;
#X obj 92 512 r \$0-ctf;
#X obj 422 505 r \$0-hpf;
#X obj 247 507 r \$0-rsn;
#X obj 93 615 s~ \$0-ctf~;
#X obj 247 608 s~ \$0-rsn~;
#X obj 423 610 s~ \$0-hpf~;
#X obj 93 563 pack f 20;
#X obj 247 556 pack f 20;
#X obj 423 556 pack f 20;
#X obj 151 534 r \$0-line;
#X obj 309 533 r \$0-line;
#X obj 476 528 r \$0-line;
#X obj 35 90 / 127;
#X msg 35 197 2 \$1;
#X obj 35 220 pow;
#X obj 35 244 * 20;
#X obj 35 174 * 10;
#X obj 34 270 s \$0-ctf;
#X obj 168 83 / 127;
#X msg 168 129 2 \$1;
#X obj 168 152 pow;
#X obj 168 176 * 20;
#X obj 168 106 * 10;
#X obj 167 200 s \$0-hpf;
#X obj 168 21 r \$0-hpf-slider;
#X obj 31 16 r \$0-ctf-slider;
#X obj 546 52 / 300;
#X obj 587 566 pack f 20;
#X obj 588 593 line~;
#X obj 592 621 s~ \$0-drive~;
#X obj 546 76 s \$0-drive;
#X obj 576 505 r \$0-drive;
#X obj 597 534 r \$0-line;
#X obj 546 23 r \$0-drive-nbx;
#X obj 91 46 r \$0-norm;
#X obj 91 70 change;
#X obj 91 94 bang;
#X obj 100 120 del;
#X obj 719 161 s \$0-bypass;
#X obj 814 222 s \$0-flt;
#X obj 745 297 s \$0-ctf-slider;
#X obj 745 321 s \$0-rsn-slider;
#X obj 745 345 s \$0-hpf-slider;
#X obj 745 369 s \$0-drive-nbx;
#X obj 745 393 s \$0-norm;
#X obj 1183 158 s \$0-clear;
#X obj 948 30 r \$2-index-\$1;
#X msg 864 74 bypass \$1;
#X obj 865 51 ==;
#X obj 825 471 s \$2-ctf-slider-set;
#X obj 829 495 s \$2-rsn-slider-set;
#X obj 831 519 s \$2-hpf-slider-set;
#X obj 831 542 s \$2-drive-nbx-set;
#X obj 832 566 s \$2-norm-set;
#X msg 977 454 set \$1;
#X msg 979 474 set \$1;
#X msg 979 496 set \$1;
#X msg 1002 524 set \$1;
#X msg 1002 546 set \$1;
#X obj 1073 655 text set \$2-filters;
#X obj 951 382 t a a, f 28;
#X obj 1087 557 t a b;
#X obj 1148 601 f \$1;
#X obj 948 53 route float bang;
#X obj 944 295 pack f f f f f f f f, f 43;
#X obj 952 413 unpack f f f f f f f f;
#X obj 1031 606 list split 2;
#X msg 1002 568 set \$1;
#X obj 834 590 s \$2-flt;
#X msg 55 430 set \$1;
#X msg 205 430 set \$1;
#X msg 331 430 set \$1;
#X msg 491 430 set \$1;
#X obj 491 451 s \$2-drive-set;
#X msg 549 162 set \$1;
#X obj 549 140 r \$0-norm;
#X obj 549 184 s \$2-norm-set;
#X obj 55 451 s \$2-ctf;
#X obj 331 451 s \$2-hpf;
#X obj 205 451 s \$2-rsn;
#X obj 704 24 loadbang;
#X msg 702 47 filter 0 \, bypass 1;
#X obj 55 409 r \$0-ctf;
#X obj 205 409 r \$0-rsn;
#X obj 331 409 r \$0-hpf;
#X obj 491 409 r \$0-drive;
#X obj 313 78 / 127;
#X msg 312 231 2 \$1;
#X obj 312 254 pow;
#X obj 312 278 * 0.7;
#X obj 312 208 * 7;
#X obj 407 233 s \$0-rsn;
#X obj 297 19 r \$0-rsn-slider;
#X obj 415 18 r \$0-flt;
#X obj 417 74 >= 14;
#X obj 378 175 ==;
#X obj 314 131 t f f;
#X obj 425 172 spigot;
#X obj 432 136 t a a;
#X obj 435 105 &&;
#X obj 415 42 t b f f;
#X obj 464 71 < 20;
#X obj 312 176 spigot 1;
#X obj 130 242 r \$2-global-ctf-slider;
#X obj 132 296 / 127;
#X obj 35 132 +;
#X obj 134 354 t b f;
#X obj 524 278 / 127;
#X obj 523 330 t b f;
#X obj 522 231 r \$2-global-rsn-slider;
#X obj 314 110 +;
#X obj 827 132 route bypass filter cutoff resonance shelf drive norm
clear;
#X obj 132 268 spigot;
#X obj 186 267 r \$0-bypass;
#X obj 523 255 spigot;
#X obj 577 254 r \$0-bypass;
#X obj 178 267 ==;
#X obj 569 254 ==;
#X obj 133 325 - 0.5;
#X obj 523 304 - 0.5;
#X obj 759 557 r \$2-load;
#X obj 786 641 text get \$2-filters;
#X obj 786 613 f \$1;
#X obj 782 586 bng 15 250 50 0 empty empty empty 17 7 0 10 -262144
-1 -1;
#X obj 841 701 expr if($f1+$f2+$f3+$f4+$f5+$f6 != 0 \, 1 \, 0);
#X obj 775 809 spigot;
#X obj 735 255 unpack f f f f f f;
#X obj 840 760 t f f;
#X obj 639 766 s \$2-index-\$1-set;
#X obj 670 744 f;
#X obj 760 674 t b a a;
#X obj 1008 90 bng 15 250 50 0 empty empty empty 17 7 0 10 -262144
-1 -1;
#X obj 1083 322 unpack f f f f f f;
#X obj 1254 809 t a;
#X obj 1258 297 t a;
#X connect 0 0 7 0;
#X connect 1 0 6 0;
#X connect 2 0 8 0;
#X connect 3 0 9 0;
#X connect 4 0 11 0;
#X connect 5 0 10 0;
#X connect 9 0 1 0;
#X connect 10 0 0 0;
#X connect 11 0 2 0;
#X connect 12 0 9 1;
#X connect 13 0 10 1;
#X connect 14 0 11 1;
#X connect 15 0 108 0;
#X connect 16 0 17 0;
#X connect 17 0 18 0;
#X connect 18 0 20 0;
#X connect 19 0 16 0;
#X connect 21 0 25 0;
#X connect 22 0 23 0;
#X connect 23 0 24 0;
#X connect 24 0 26 0;
#X connect 25 0 22 0;
#X connect 27 0 21 0;
#X connect 28 0 15 0;
#X connect 29 0 33 0;
#X connect 30 0 31 0;
#X connect 31 0 32 0;
#X connect 34 0 30 0;
#X connect 35 0 30 1;
#X connect 36 0 29 0;
#X connect 37 0 38 0;
#X connect 38 0 39 0;
#X connect 39 0 40 0;
#X connect 40 0 15 0;
#X connect 40 0 21 0;
#X connect 49 0 66 0;
#X connect 50 0 114 0;
#X connect 51 0 50 0;
#X connect 57 0 52 0;
#X connect 58 0 53 0;
#X connect 59 0 54 0;
#X connect 60 0 55 0;
#X connect 61 0 56 0;
#X connect 63 0 68 0;
#X connect 63 1 64 0;
#X connect 64 0 69 0;
#X connect 64 1 65 0;
#X connect 65 0 62 1;
#X connect 66 0 51 0;
#X connect 66 1 134 0;
#X connect 66 2 114 0;
#X connect 67 0 63 0;
#X connect 68 2 57 0;
#X connect 68 3 58 0;
#X connect 68 4 59 0;
#X connect 68 5 60 0;
#X connect 68 6 61 0;
#X connect 68 7 70 0;
#X connect 69 1 62 0;
#X connect 70 0 71 0;
#X connect 72 0 80 0;
#X connect 73 0 82 0;
#X connect 74 0 81 0;
#X connect 75 0 76 0;
#X connect 77 0 79 0;
#X connect 78 0 77 0;
#X connect 83 0 84 0;
#X connect 84 0 114 0;
#X connect 85 0 72 0;
#X connect 86 0 73 0;
#X connect 87 0 74 0;
#X connect 88 0 75 0;
#X connect 89 0 113 0;
#X connect 90 0 91 0;
#X connect 91 0 92 0;
#X connect 92 0 94 0;
#X connect 93 0 90 0;
#X connect 95 0 89 0;
#X connect 96 0 103 0;
#X connect 97 0 102 0;
#X connect 98 0 105 1;
#X connect 99 0 105 0;
#X connect 99 1 100 0;
#X connect 100 0 94 0;
#X connect 101 0 98 0;
#X connect 101 1 100 1;
#X connect 102 0 101 0;
#X connect 103 0 89 0;
#X connect 103 1 97 0;
#X connect 103 2 104 0;
#X connect 104 0 102 1;
#X connect 105 0 93 0;
#X connect 106 0 115 0;
#X connect 107 0 121 0;
#X connect 108 0 19 0;
#X connect 109 0 108 0;
#X connect 109 1 108 1;
#X connect 110 0 122 0;
#X connect 111 0 113 0;
#X connect 111 1 113 1;
#X connect 112 0 117 0;
#X connect 113 0 99 0;
#X connect 114 0 41 0;
#X connect 114 0 67 1;
#X connect 114 1 42 0;
#X connect 114 1 67 7;
#X connect 114 2 43 0;
#X connect 114 2 67 2;
#X connect 114 3 44 0;
#X connect 114 3 67 3;
#X connect 114 4 45 0;
#X connect 114 4 67 4;
#X connect 114 5 46 0;
#X connect 114 5 67 5;
#X connect 114 6 47 0;
#X connect 114 6 67 6;
#X connect 114 7 48 0;
#X connect 115 0 107 0;
#X connect 116 0 119 0;
#X connect 117 0 110 0;
#X connect 118 0 120 0;
#X connect 119 0 115 1;
#X connect 120 0 117 1;
#X connect 121 0 109 0;
#X connect 122 0 111 0;
#X connect 123 0 126 0;
#X connect 124 0 133 0;
#X connect 125 0 124 0;
#X connect 126 0 125 0;
#X connect 127 0 130 0;
#X connect 128 0 136 0;
#X connect 128 0 129 0;
#X connect 129 0 43 0;
#X connect 129 1 44 0;
#X connect 129 2 45 0;
#X connect 129 3 46 0;
#X connect 129 4 47 0;
#X connect 129 5 42 0;
#X connect 130 0 128 1;
#X connect 130 1 132 1;
#X connect 132 0 131 0;
#X connect 133 0 132 0;
#X connect 133 1 128 0;
#X connect 133 2 127 0;
#X connect 134 0 67 0;
#X connect 135 0 67 2;
#X connect 135 1 67 3;
#X connect 135 2 67 4;
#X connect 135 3 67 5;
#X connect 135 4 67 6;
#X connect 135 5 67 7;
#X connect 136 0 137 0;
#X connect 137 0 135 0;
#X restore 210 23 pd glue;
#N canvas 0 22 450 300 filters 0;
#N canvas 0 22 450 300 rlpf~ 0;
#X obj 37 222 *~;
#X obj 197 115 r \$0-flt;
#X obj 197 138 == 0;
#X obj 37 74 r~ \$0-noise;
#X obj 37 245 throw~ \$0-filter;
#X text 37 26 Resonant Low Pass Filter;
#X obj 37 147 lowpass~;
#X obj 280 199 switch~;
#X obj 197 162 fd_switch;
#X obj 54 97 r~ \$0-ctf~;
#X obj 72 120 r~ \$0-rsn~;
#X connect 0 0 4 0;
#X connect 1 0 2 0;
#X connect 2 0 8 0;
#X connect 3 0 6 0;
#X connect 6 0 0 0;
#X connect 8 0 0 1;
#X connect 8 1 7 0;
#X connect 9 0 6 1;
#X connect 10 0 6 2;
#X restore 10 49 pd rlpf~;
#N canvas 0 22 450 300 rbpf1~ 0;
#X obj 197 115 r \$0-flt;
#X obj 280 199 switch~;
#X obj 197 162 fd_switch;
#X obj 25 229 *~;
#X obj 25 81 r~ \$0-noise;
#X obj 25 252 throw~ \$0-filter;
#X text 25 55 Resonant Band Pass Filter 1;
#X obj 25 154 bandpass~;
#X obj 197 139 == 1;
#X obj 44 104 r~ \$0-ctf~;
#X obj 63 128 r~ \$0-rsn~;
#X connect 0 0 8 0;
#X connect 2 0 3 1;
#X connect 2 1 1 0;
#X connect 3 0 5 0;
#X connect 4 0 7 0;
#X connect 7 0 3 0;
#X connect 8 0 2 0;
#X connect 9 0 7 1;
#X connect 10 0 7 2;
#X restore 10 72 pd rbpf1~;
#N canvas 0 22 450 300 rbpf2~ 0;
#X obj 57 227 *~;
#X obj 57 79 r~ \$0-noise;
#X obj 57 250 throw~ \$0-filter;
#X text 57 31 Resonant Band Pass Filter 2;
#X obj 57 152 resonant~;
#X obj 197 115 r \$0-flt;
#X obj 280 199 switch~;
#X obj 197 162 fd_switch;
#X obj 197 139 == 2;
#X obj 76 102 r~ \$0-ctf~;
#X obj 95 126 r~ \$0-rsn~;
#X connect 0 0 2 0;
#X connect 1 0 4 0;
#X connect 4 0 0 0;
#X connect 5 0 8 0;
#X connect 7 0 0 1;
#X connect 7 1 6 0;
#X connect 8 0 7 0;
#X connect 9 0 4 1;
#X connect 10 0 4 2;
#X restore 10 95 pd rbpf2~;
#N canvas 0 22 450 300 rhpf~ 0;
#X obj 26 187 *~;
#X obj 26 39 r~ \$0-noise;
#X obj 26 210 throw~ \$0-filter;
#X text 26 13 Resonant High Pass Filter;
#X obj 26 112 highpass~;
#X obj 197 115 r \$0-flt;
#X obj 280 199 switch~;
#X obj 197 162 fd_switch;
#X obj 197 139 == 3;
#X obj 45 63 r~ \$0-ctf~;
#X obj 64 86 r~ \$0-rsn~;
#X connect 0 0 2 0;
#X connect 1 0 4 0;
#X connect 4 0 0 0;
#X connect 5 0 8 0;
#X connect 7 0 0 1;
#X connect 7 1 6 0;
#X connect 8 0 7 0;
#X connect 9 0 4 1;
#X connect 10 0 4 2;
#X restore 10 118 pd rhpf~;
#N canvas 0 22 450 300 lpf~ 0;
#X obj 27 207 *~;
#X obj 27 81 r~ \$0-noise;
#X obj 27 230 throw~ \$0-filter;
#X obj 27 132 lpf~;
#X text 27 55 1 Pole Low Pass Filter;
#X obj 197 115 r \$0-flt;
#X obj 280 199 switch~;
#X obj 197 162 fd_switch;
#X obj 197 139 == 4;
#X obj 50 104 r~ \$0-ctf~;
#X connect 0 0 2 0;
#X connect 1 0 3 0;
#X connect 3 0 0 0;
#X connect 5 0 8 0;
#X connect 7 0 0 1;
#X connect 7 1 6 0;
#X connect 8 0 7 0;
#X connect 9 0 3 1;
#X restore 10 141 pd lpf~;
#N canvas 0 22 450 300 hpf~ 0;
#X obj 58 207 *~;
#X obj 58 81 r~ \$0-noise;
#X obj 58 230 throw~ \$0-filter;
#X obj 58 132 hpf~;
#X text 58 33 1 Pole High Pass Filter;
#X obj 197 115 r \$0-flt;
#X obj 280 199 switch~;
#X obj 197 162 fd_switch;
#X obj 197 139 == 5;
#X obj 81 104 r~ \$0-ctf~;
#X connect 0 0 2 0;
#X connect 1 0 3 0;
#X connect 3 0 0 0;
#X connect 5 0 8 0;
#X connect 7 0 0 1;
#X connect 7 1 6 0;
#X connect 8 0 7 0;
#X connect 9 0 3 1;
#X restore 10 164 pd hpf~;
#N canvas 0 22 450 300 hp2~ 0;
#X text 21 24 2-pole \, 2-zero butterworth high-pass filter with line~
objects to try to de-click transitions;
#X obj 26 151 butterworth-hp2~ 20;
#X obj 27 221 *~;
#X obj 26 243 throw~ \$0-filter;
#X obj 26 69 r~ \$0-noise;
#X obj 37 92 r \$0-ctf;
#X obj 95 105 r \$0-line;
#X obj 147 128 r \$0-clear;
#X obj 249 102 r \$0-flt;
#X obj 332 186 switch~;
#X obj 249 149 fd_switch;
#X obj 249 126 == 6;
#X connect 1 0 2 0;
#X connect 2 0 3 0;
#X connect 4 0 1 0;
#X connect 5 0 1 1;
#X connect 6 0 1 2;
#X connect 7 0 1 3;
#X connect 8 0 11 0;
#X connect 10 0 2 1;
#X connect 10 1 9 0;
#X connect 11 0 10 0;
#X restore 88 50 pd hp2~;
#N canvas 0 22 450 300 hp3~ 0;
#X text 20 9 3-pole \, 3-zero butterworth high-pass filter with line~
objects to try to de-click transitions;
#X obj 44 207 *~;
#X obj 43 234 throw~ \$0-filter;
#X obj 19 74 r~ \$0-noise;
#X obj 58 105 r \$0-ctf;
#X obj 122 77 r \$0-line;
#X obj 187 101 r \$0-clear;
#X obj 43 135 butterworth-hp3~ 20;
#X obj 210 142 r \$0-flt;
#X obj 293 226 switch~;
#X obj 210 189 fd_switch;
#X obj 210 166 == 7;
#X connect 1 0 2 0;
#X connect 3 0 7 0;
#X connect 4 0 7 1;
#X connect 5 0 7 2;
#X connect 6 0 7 3;
#X connect 7 0 1 0;
#X connect 8 0 11 0;
#X connect 10 0 1 1;
#X connect 10 1 9 0;
#X connect 11 0 10 0;
#X restore 88 77 pd hp3~;
#N canvas 0 22 450 300 lp2~ 0;
#X text 25 38 2-pole \, 2-zero butterworth low-pass filter with line~
objects to try to de-click transitions;
#X obj 48 196 *~;
#X obj 50 222 throw~ \$0-filter;
#X obj 22 88 r~ \$0-noise;
#X obj 98 116 r \$0-ctf;
#X obj 162 88 r \$0-line;
#X obj 227 112 r \$0-clear;
#X obj 49 140 butterworth-lp2~ 18000;
#X obj 258 148 r \$0-flt;
#X obj 341 232 switch~;
#X obj 258 195 fd_switch;
#X obj 258 172 == 8;
#X connect 1 0 2 0;
#X connect 3 0 7 0;
#X connect 4 0 7 1;
#X connect 5 0 7 2;
#X connect 6 0 7 3;
#X connect 7 0 1 0;
#X connect 8 0 11 0;
#X connect 10 0 1 1;
#X connect 10 1 9 0;
#X connect 11 0 10 0;
#X restore 88 104 pd lp2~;
#N canvas 0 22 450 300 lp3~ 0;
#X text 15 27 3-pole \, 3-zero butterworth low-pass filter with line~
objects to try to de-click transitions;
#X obj 34 190 *~;
#X obj 36 216 throw~ \$0-filter;
#X obj 21 74 r~ \$0-noise;
#X obj 75 112 r \$0-ctf;
#X obj 139 84 r \$0-line;
#X obj 204 108 r \$0-clear;
#X obj 26 136 butterworth-lp3~ 18000;
#X obj 258 148 r \$0-flt;
#X obj 341 232 switch~;
#X obj 258 195 fd_switch;
#X obj 258 172 == 9;
#X connect 1 0 2 0;
#X connect 3 0 7 0;
#X connect 4 0 7 1;
#X connect 5 0 7 2;
#X connect 6 0 7 3;
#X connect 7 0 1 0;
#X connect 8 0 11 0;
#X connect 10 0 1 1;
#X connect 10 1 9 0;
#X connect 11 0 10 0;
#X restore 88 131 pd lp3~;
#N canvas 0 22 450 300 lp3-dumb~ 0;
#X text 11 36 3-pole \, 3-zero butterworth low-pass filter with line~
objects to try to de-click transitions;
#X obj 22 226 *~;
#X obj 25 252 throw~ \$0-filter;
#X obj 25 90 r~ \$0-noise;
#X obj 72 118 r \$0-ctf;
#X obj 161 115 r \$0-clear;
#X obj 23 143 butterworth-lp3-dumb~ 18000;
#X obj 258 148 r \$0-flt;
#X obj 341 232 switch~;
#X obj 258 195 fd_switch;
#X obj 258 172 == 10;
#X connect 1 0 2 0;
#X connect 3 0 6 0;
#X connect 4 0 6 1;
#X connect 5 0 6 2;
#X connect 6 0 1 0;
#X connect 7 0 10 0;
#X connect 9 0 1 1;
#X connect 9 1 8 0;
#X connect 10 0 9 0;
#X restore 88 158 pd lp3-dumb~;
#N canvas 0 22 450 300 lp5~ 0;
#X text 25 45 5-pole \, 5-zero butterworth low-pass filter;
#X obj 50 180 *~;
#X obj 52 206 throw~ \$0-filter;
#X obj 48 79 r~ \$0-noise;
#X obj 93 107 r \$0-ctf;
#X obj 222 103 r \$0-clear;
#X obj 44 131 butterworth-lp5~ 18000;
#X obj 258 148 r \$0-flt;
#X obj 341 232 switch~;
#X obj 258 195 fd_switch;
#X obj 258 172 == 11;
#X connect 1 0 2 0;
#X connect 3 0 6 0;
#X connect 4 0 6 1;
#X connect 5 0 6 2;
#X connect 6 0 1 0;
#X connect 7 0 10 0;
#X connect 9 0 1 1;
#X connect 9 1 8 0;
#X connect 10 0 9 0;
#X restore 88 185 pd lp5~;
#N canvas 0 22 450 300 shelf3 0;
#X text 124 184 Shelving filter;
#X text 146 230 arg1 - pole frequency;
#X text 143 245 arg2 - zero frequency;
#X text 146 259 arg3 - 0 to normalize at DC \, 1 for Nyquist;
#X text 5 15 Shelving: HP and LP specify shelving band. Gain difference
is about HP/LP cubed (so HP=2LP should give about 18 dB \, for example.)
;
#X obj 26 211 *~;
#X obj 22 248 throw~ \$0-filter;
#X obj 32 75 r~ \$0-noise;
#X obj 69 103 r \$0-ctf;
#X obj 256 103 r \$0-clear;
#X obj 43 130 butterworth-shelf3~ 5000 18000 1;
#X obj 150 72 r \$0-hpf;
#X obj 258 148 r \$0-flt;
#X obj 341 232 switch~;
#X obj 258 195 fd_switch;
#X obj 258 172 == 12;
#X obj 226 68 r \$0-norm;
#X connect 5 0 6 0;
#X connect 7 0 10 0;
#X connect 8 0 10 1;
#X connect 9 0 10 4;
#X connect 10 0 5 0;
#X connect 11 0 10 2;
#X connect 12 0 15 0;
#X connect 14 0 5 1;
#X connect 14 1 13 0;
#X connect 15 0 14 0;
#X connect 16 0 10 3;
#X restore 184 48 pd shelf3;
#N canvas 0 22 450 300 butter3 0;
#X text 13 14 3-pole \, 3-zero butterworth lp/hp/shelving filter. Args:
lp freq \, hp freq \, normalize-hi. Inlets: input signal \, lo freq
\, hi freq \, hi norm \, reset.;
#X text 27 75 For high-pass: set LP freq =0 and hi/lo to 1;
#X text 30 62 For low-pass: set HP freq >= SR/2 and hi/lo to 0;
#X obj 72 220 *~;
#X obj 74 246 throw~ \$0-filter;
#X obj 20 116 r~ \$0-noise;
#X obj 74 148 r \$0-ctf;
#X obj 203 145 r \$0-clear;
#X obj 137 143 r \$0-hpf;
#X obj 75 189 butterworth3~ 18000 20 0;
#X obj 197 109 r \$0-norm;
#X obj 299 146 r \$0-flt;
#X obj 341 232 switch~;
#X obj 299 193 fd_switch;
#X obj 299 170 == 13;
#X connect 3 0 4 0;
#X connect 5 0 9 0;
#X connect 6 0 9 1;
#X connect 7 0 9 4;
#X connect 8 0 9 2;
#X connect 9 0 3 0;
#X connect 10 0 9 3;
#X connect 11 0 14 0;
#X connect 13 0 3 1;
#X connect 13 1 12 0;
#X connect 14 0 13 0;
#X restore 184 71 pd butter3;
#N canvas 0 22 445 300 lp24~ 0;
#X obj 37 222 *~;
#X obj 252 129 r \$0-flt;
#X obj 37 245 throw~ \$0-filter;
#X obj 335 213 switch~;
#X obj 252 176 fd_switch;
#X obj 72 81 r~ \$0-ctf~;
#X obj 128 117 r~ \$0-rsn~;
#X obj 184 74 r~ \$0-drive~;
#X obj 15 50 r~ \$0-noise;
#X obj 252 152 == 14;
#X text 37 26 lp24;
#X obj 21 155 filter~ LP24;
#X connect 0 0 2 0;
#X connect 1 0 9 0;
#X connect 4 0 0 1;
#X connect 4 1 3 0;
#X connect 5 0 11 1;
#X connect 6 0 11 2;
#X connect 7 0 11 3;
#X connect 8 0 11 0;
#X connect 9 0 4 0;
#X connect 11 0 0 0;
#X restore 183 113 pd lp24~;
#X text 181 93 Nusmuk, f 7;
#X text 89 28 Miller;
#N canvas 0 22 445 300 lp12~ 0;
#X obj 37 222 *~;
#X obj 252 129 r \$0-flt;
#X obj 37 245 throw~ \$0-filter;
#X obj 335 213 switch~;
#X obj 252 176 fd_switch;
#X obj 72 81 r~ \$0-ctf~;
#X obj 128 117 r~ \$0-rsn~;
#X obj 184 74 r~ \$0-drive~;
#X obj 15 50 r~ \$0-noise;
#X text 37 26 lp24;
#X obj 252 152 == 15;
#X obj 21 155 filter~ LP12;
#X connect 0 0 2 0;
#X connect 1 0 10 0;
#X connect 4 0 0 1;
#X connect 4 1 3 0;
#X connect 5 0 11 1;
#X connect 6 0 11 2;
#X connect 7 0 11 3;
#X connect 8 0 11 0;
#X connect 10 0 4 0;
#X connect 11 0 0 0;
#X restore 183 136 pd lp12~;
#N canvas 0 22 445 300 hp12~ 0;
#X obj 37 222 *~;
#X obj 252 129 r \$0-flt;
#X obj 37 245 throw~ \$0-filter;
#X obj 335 213 switch~;
#X obj 252 176 fd_switch;
#X obj 72 81 r~ \$0-ctf~;
#X obj 128 117 r~ \$0-rsn~;
#X obj 184 74 r~ \$0-drive~;
#X obj 15 50 r~ \$0-noise;
#X text 37 26 lp24;
#X obj 252 152 == 16;
#X obj 21 155 filter~ HP12;
#X connect 0 0 2 0;
#X connect 1 0 10 0;
#X connect 4 0 0 1;
#X connect 4 1 3 0;
#X connect 5 0 11 1;
#X connect 6 0 11 2;
#X connect 7 0 11 3;
#X connect 8 0 11 0;
#X connect 10 0 4 0;
#X connect 11 0 0 0;
#X restore 183 159 pd hp12~;
#N canvas 0 22 445 300 bp12~ 0;
#X obj 37 222 *~;
#X obj 252 129 r \$0-flt;
#X obj 37 245 throw~ \$0-filter;
#X obj 335 213 switch~;
#X obj 252 176 fd_switch;
#X obj 72 81 r~ \$0-ctf~;
#X obj 128 117 r~ \$0-rsn~;
#X obj 184 74 r~ \$0-drive~;
#X obj 15 50 r~ \$0-noise;
#X text 37 26 lp24;
#X obj 252 152 == 17;
#X obj 21 155 filter~ BP12;
#X connect 0 0 2 0;
#X connect 1 0 10 0;
#X connect 4 0 0 1;
#X connect 4 1 3 0;
#X connect 5 0 11 1;
#X connect 6 0 11 2;
#X connect 7 0 11 3;
#X connect 8 0 11 0;
#X connect 10 0 4 0;
#X connect 11 0 0 0;
#X restore 183 182 pd bp12~;
#N canvas 0 22 450 300 notch~ 0;
#X obj 58 207 *~;
#X obj 58 81 r~ \$0-noise;
#X obj 58 230 throw~ \$0-filter;
#X text 58 33 1 Pole High Pass Filter;
#X obj 197 115 r \$0-flt;
#X obj 280 199 switch~;
#X obj 197 162 fd_switch;
#X obj 81 104 r~ \$0-ctf~;
#X obj 197 139 == 18;
#X obj 58 132 notch~;
#X obj 113 132 r~ \$0-rsn~;
#X floatatom 290 146 5 0 0 0 - - -;
#X connect 0 0 2 0;
#X connect 1 0 9 0;
#X connect 4 0 8 0;
#X connect 6 0 0 1;
#X connect 6 1 5 0;
#X connect 6 1 11 0;
#X connect 7 0 9 1;
#X connect 8 0 6 0;
#X connect 9 0 0 0;
#X connect 10 0 9 2;
#X restore 270 49 pd notch~;
#N canvas 273 25 450 300 peak~ 0;
#X obj 58 207 *~;
#X obj 58 81 r~ \$0-noise;
#X obj 58 230 throw~ \$0-filter;
#X text 58 33 1 Pole High Pass Filter;
#X obj 197 115 r \$0-flt;
#X obj 280 199 switch~;
#X obj 197 162 fd_switch;
#X obj 81 104 r~ \$0-ctf~;
#X obj 168 81 r~ \$0-rsn~;
#X floatatom 290 146 5 0 0 0 - - -;
#X obj 60 133 peak~;
#X obj 352 35 r~ \$0-drive~;
#X obj 197 139 == 19;
#X obj 358 152 snapshot~;
#X obj 419 127 bng 15 250 50 0 empty empty empty 17 7 0 10 -262144
-1 -1;
#X floatatom 358 176 5 0 0 0 - - -;
#X obj 352 59 *~ 0.001;
#X obj 352 83 -~ 0.5;
#X obj 358 128 *~ 48;
#X connect 0 0 2 0;
#X connect 1 0 10 0;
#X connect 4 0 12 0;
#X connect 6 0 0 1;
#X connect 6 1 5 0;
#X connect 6 1 9 0;
#X connect 7 0 10 1;
#X connect 8 0 10 2;
#X connect 10 0 0 0;
#X connect 11 0 16 0;
#X connect 12 0 6 0;
#X connect 13 0 15 0;
#X connect 14 0 13 0;
#X connect 16 0 17 0;
#X connect 17 0 18 0;
#X connect 18 0 10 3;
#X connect 18 0 13 0;
#X restore 270 71 pd peak~;
#N canvas 273 25 450 300 b.lp~ 0;
#X obj 58 207 *~;
#X obj 58 81 r~ \$0-noise;
#X obj 58 230 throw~ \$0-filter;
#X obj 197 115 r \$0-flt;
#X obj 280 199 switch~;
#X obj 197 162 fd_switch;
#X floatatom 290 146 5 0 0 0 - - -;
#X obj 269 63 r \$0-clear;
#X obj 60 133 b.lowpass~;
#X obj 81 103 r \$0-ctf;
#X obj 168 81 r \$0-rsn;
#X text 58 33 lopass biquad;
#X obj 197 139 == 21;
#X connect 0 0 2 0;
#X connect 1 0 8 0;
#X connect 3 0 12 0;
#X connect 5 0 0 1;
#X connect 5 1 4 0;
#X connect 5 1 6 0;
#X connect 7 0 8 3;
#X connect 8 0 0 0;
#X connect 9 0 8 1;
#X connect 10 0 8 2;
#X connect 12 0 5 0;
#X restore 270 115 pd b.lp~;
#N canvas 273 25 450 300 b.hp~ 0;
#X obj 58 207 *~;
#X obj 58 81 r~ \$0-noise;
#X obj 58 230 throw~ \$0-filter;
#X obj 197 115 r \$0-flt;
#X obj 280 199 switch~;
#X obj 197 162 fd_switch;
#X floatatom 290 146 5 0 0 0 - - -;
#X obj 269 63 r \$0-clear;
#X obj 81 103 r \$0-ctf;
#X obj 168 81 r \$0-rsn;
#X text 58 33 lopass biquad;
#X obj 197 139 == 22;
#X obj 60 133 b.highpass~;
#X connect 0 0 2 0;
#X connect 1 0 12 0;
#X connect 3 0 11 0;
#X connect 5 0 0 1;
#X connect 5 1 4 0;
#X connect 5 1 6 0;
#X connect 7 0 12 3;
#X connect 8 0 12 1;
#X connect 9 0 12 2;
#X connect 11 0 5 0;
#X connect 12 0 0 0;
#X restore 270 137 pd b.hp~;
#N canvas 273 25 450 300 lowshelf~ 0;
#X obj 58 207 *~;
#X obj 58 81 r~ \$0-noise;
#X obj 58 230 throw~ \$0-filter;
#X obj 218 142 r \$0-flt;
#X obj 301 226 switch~;
#X obj 218 189 fd_switch;
#X obj 81 104 r~ \$0-ctf~;
#X obj 168 81 r~ \$0-rsn~;
#X floatatom 311 173 5 0 0 0 - - -;
#X obj 352 35 r~ \$0-drive~;
#X obj 352 59 *~ 0.001;
#X obj 352 83 -~ 0.5;
#X obj 354 105 *~ 48;
#X obj 60 133 lowshelf~;
#X obj 218 166 == 23;
#X text 58 33 Low Shelf;
#X connect 0 0 2 0;
#X connect 1 0 13 0;
#X connect 3 0 14 0;
#X connect 5 0 0 1;
#X connect 5 1 4 0;
#X connect 5 1 8 0;
#X connect 6 0 13 1;
#X connect 7 0 13 2;
#X connect 9 0 10 0;
#X connect 10 0 11 0;
#X connect 11 0 12 0;
#X connect 12 0 13 3;
#X connect 13 0 0 0;
#X connect 14 0 5 0;
#X restore 270 159 pd lowshelf~;
#N canvas 273 25 450 300 highhelf~ 0;
#X obj 58 207 *~;
#X obj 58 81 r~ \$0-noise;
#X obj 58 230 throw~ \$0-filter;
#X obj 218 142 r \$0-flt;
#X obj 301 226 switch~;
#X obj 218 189 fd_switch;
#X obj 81 104 r~ \$0-ctf~;
#X obj 168 81 r~ \$0-rsn~;
#X floatatom 311 173 5 0 0 0 - - -;
#X obj 352 35 r~ \$0-drive~;
#X obj 352 59 *~ 0.001;
#X obj 352 83 -~ 0.5;
#X obj 354 105 *~ 48;
#X text 58 33 Low Shelf;
#X obj 60 133 highshelf~;
#X obj 218 166 == 24;
#X connect 0 0 2 0;
#X connect 1 0 14 0;
#X connect 3 0 15 0;
#X connect 5 0 0 1;
#X connect 5 1 4 0;
#X connect 5 1 8 0;
#X connect 6 0 14 1;
#X connect 7 0 14 2;
#X connect 9 0 10 0;
#X connect 10 0 11 0;
#X connect 11 0 12 0;
#X connect 12 0 14 3;
#X connect 14 0 0 0;
#X connect 15 0 5 0;
#X restore 348 48 pd highhelf~;
#N canvas 0 22 450 300 lp~ 0;
#X obj 37 222 *~;
#X obj 197 115 r \$0-flt;
#X obj 37 74 r~ \$0-noise;
#X obj 37 245 throw~ \$0-filter;
#X obj 280 199 switch~;
#X obj 197 162 fd_switch;
#X obj 54 97 r~ \$0-ctf~;
#X obj 37 147 lp~;
#X obj 197 138 == 25;
#X text 37 26 Low Pass Filter;
#X connect 0 0 3 0;
#X connect 1 0 8 0;
#X connect 2 0 7 0;
#X connect 5 0 0 1;
#X connect 5 1 4 0;
#X connect 6 0 7 1;
#X connect 7 0 0 0;
#X connect 8 0 5 0;
#X restore 348 70 pd lp~;
#N canvas 273 25 450 300 ap~ 0;
#X obj 58 207 *~;
#X obj 58 81 r~ \$0-noise;
#X obj 58 230 throw~ \$0-filter;
#X obj 197 115 r \$0-flt;
#X obj 280 199 switch~;
#X obj 197 162 fd_switch;
#X obj 81 104 r~ \$0-ctf~;
#X obj 168 81 r~ \$0-rsn~;
#X floatatom 290 146 5 0 0 0 - - -;
#X obj 60 133 allpass~;
#X obj 120 132 r \$0-clear;
#X obj 197 139 == 20;
#X text 58 33 All pass filter;
#X connect 0 0 2 0;
#X connect 1 0 9 0;
#X connect 3 0 11 0;
#X connect 5 0 0 1;
#X connect 5 1 4 0;
#X connect 5 1 8 0;
#X connect 6 0 9 1;
#X connect 7 0 9 2;
#X connect 9 0 0 0;
#X connect 10 0 9 3;
#X connect 11 0 5 0;
#X restore 270 93 pd ap~;
#X text 11 27 mkmr;
#X text 276 27 mkmr;
#X restore 210 47 pd filters;
#X connect 0 0 1 0;
#X connect 0 0 6 0;
#X connect 3 0 13 1;
#X connect 4 0 12 0;
#X connect 5 0 2 0;
#X connect 6 0 5 0;
#X connect 7 0 13 0;
#X connect 8 0 7 0;
#X connect 9 0 6 1;
#X connect 10 0 9 0;
#X connect 11 0 8 0;
#X connect 12 0 10 0;
#X connect 12 1 11 0;
#X connect 13 0 5 0;
