#N canvas 3 5 681 749 12;
#X text 335 36 f0pix bwpix;
#X obj 107 229 omega;
#X obj 306 378 alpha;
#X obj 127 353 t f f;
#X obj 304 671 outlet;
#X obj 159 401 t f f;
#X obj 449 475 + 1;
#X obj 107 133 swap;
#X obj 107 179 - 1;
#X obj 107 154 /;
#X obj 127 282 cos;
#X obj 159 377 * 0.5;
#X obj 56 419 cos;
#X obj 56 445 * -2;
#X obj 306 402 t f f;
#X msg 306 426 1 \$1;
#X obj 306 450 -;
#X msg 127 306 1 \$1;
#X obj 127 330 -;
#X text 478 473 a0;
#X text 99 447 a1;
#X text 337 456 a2;
#X text 116 380 b1;
#X text 148 429 b0;
#X text 181 432 b2;
#X obj 304 642 pack f f f f f;
#X obj 56 471 * -1;
#X obj 306 474 * -1;
#X obj 280 609 /;
#X obj 310 609 /;
#X obj 350 609 /;
#X obj 380 609 /;
#X obj 420 609 /;
#X obj 449 499 t f f f f f;
#X obj 306 328 f;
#X obj 107 253 t f f b f;
#X obj 107 204 t f f;
#X obj 33 6 inlet;
#X obj 200 19 inlet;
#X obj 200 43 t b f;
#X obj 94 96 f;
#X connect 1 0 35 0;
#X connect 2 0 14 0;
#X connect 3 0 31 0;
#X connect 3 1 11 0;
#X connect 5 0 30 0;
#X connect 5 1 32 0;
#X connect 6 0 33 0;
#X connect 7 0 9 0;
#X connect 7 1 9 1;
#X connect 8 0 36 0;
#X connect 9 0 8 0;
#X connect 10 0 17 0;
#X connect 11 0 5 0;
#X connect 12 0 13 0;
#X connect 13 0 26 0;
#X connect 14 0 15 0;
#X connect 14 1 6 0;
#X connect 15 0 16 0;
#X connect 16 0 27 0;
#X connect 17 0 18 0;
#X connect 18 0 3 0;
#X connect 25 0 4 0;
#X connect 26 0 28 0;
#X connect 27 0 29 0;
#X connect 28 0 25 0;
#X connect 29 0 25 1;
#X connect 30 0 25 2;
#X connect 31 0 25 3;
#X connect 32 0 25 4;
#X connect 33 0 28 1;
#X connect 33 1 29 1;
#X connect 33 2 30 1;
#X connect 33 3 31 1;
#X connect 33 4 32 1;
#X connect 34 0 2 0;
#X connect 35 0 12 0;
#X connect 35 1 10 0;
#X connect 35 2 34 0;
#X connect 35 3 2 1;
#X connect 36 0 1 0;
#X connect 36 1 34 1;
#X connect 37 0 40 0;
#X connect 38 0 39 0;
#X connect 39 0 40 0;
#X connect 39 1 7 1;
#X connect 40 0 7 0;
